<mxfile host="65bd71144e">
    <diagram id="n5W9dpHo_4uRlmlUV37y" name="Deployed Resources">
        <mxGraphModel dx="1004" dy="691" grid="1" gridSize="10" guides="1" tooltips="1" connect="1" arrows="1" fold="1" page="1" pageScale="1" pageWidth="1700" pageHeight="1100" background="#FFFFFF" math="0" shadow="0">
            <root>
                <mxCell id="0"/>
                <mxCell id="1" parent="0"/>
                <mxCell id="Vt560z4J3A8kVG_z0Vwq-2" value="" style="rounded=1;whiteSpace=wrap;html=1;fontSize=20;fillColor=none;arcSize=2;dashed=1;" parent="1" vertex="1">
                    <mxGeometry x="161" y="70" width="1059" height="730" as="geometry"/>
                </mxCell>
                <mxCell id="Vt560z4J3A8kVG_z0Vwq-3" value="Deployed Resources" style="rounded=1;whiteSpace=wrap;html=1;fontSize=20;fillColor=none;arcSize=2;dashed=1;labelPosition=center;verticalLabelPosition=bottom;align=center;verticalAlign=top;" parent="1" vertex="1">
                    <mxGeometry x="400" y="100" width="800" height="660" as="geometry"/>
                </mxCell>
                <mxCell id="Vt560z4J3A8kVG_z0Vwq-4" value="Deployment/Target&lt;br style=&quot;font-size: 20px;&quot;&gt;Account" style="outlineConnect=0;dashed=0;verticalLabelPosition=middle;verticalAlign=middle;align=left;html=1;shape=mxgraph.aws3.cloud_2;fillColor=#F58534;gradientColor=none;labelPosition=right;fontSize=20;" parent="1" vertex="1">
                    <mxGeometry x="160" y="270" width="60" height="60" as="geometry"/>
                </mxCell>
                <mxCell id="Vt560z4J3A8kVG_z0Vwq-5" value="Deploy" style="edgeStyle=orthogonalEdgeStyle;rounded=0;orthogonalLoop=1;jettySize=auto;html=1;entryX=0;entryY=0.644;entryDx=0;entryDy=0;fontSize=20;entryPerimeter=0;" parent="1" source="Vt560z4J3A8kVG_z0Vwq-6" target="Vt560z4J3A8kVG_z0Vwq-3" edge="1">
                    <mxGeometry relative="1" as="geometry"/>
                </mxCell>
                <mxCell id="Vt560z4J3A8kVG_z0Vwq-6" value="CAEF/CDK" style="sketch=0;points=[[0,0,0],[0.25,0,0],[0.5,0,0],[0.75,0,0],[1,0,0],[0,1,0],[0.25,1,0],[0.5,1,0],[0.75,1,0],[1,1,0],[0,0.25,0],[0,0.5,0],[0,0.75,0],[1,0.25,0],[1,0.5,0],[1,0.75,0]];outlineConnect=0;fontColor=#232F3E;gradientColor=#4D72F3;gradientDirection=north;fillColor=#3334B9;strokeColor=#ffffff;dashed=0;verticalLabelPosition=bottom;verticalAlign=top;align=center;html=1;fontSize=20;fontStyle=0;aspect=fixed;shape=mxgraph.aws4.resourceIcon;resIcon=mxgraph.aws4.cloud_development_kit;" parent="1" vertex="1">
                    <mxGeometry x="210" y="486" width="78" height="78" as="geometry"/>
                </mxCell>
                <mxCell id="8" style="edgeStyle=none;html=1;" parent="1" source="2" target="6" edge="1">
                    <mxGeometry relative="1" as="geometry"/>
                </mxCell>
                <mxCell id="11" value="Uses" style="edgeLabel;html=1;align=center;verticalAlign=middle;resizable=0;points=[];fontSize=16;" parent="8" vertex="1" connectable="0">
                    <mxGeometry x="0.6363" y="-1" relative="1" as="geometry">
                        <mxPoint x="28" y="1" as="offset"/>
                    </mxGeometry>
                </mxCell>
                <mxCell id="14" style="edgeStyle=none;html=1;entryX=0.5;entryY=0;entryDx=0;entryDy=0;fontSize=16;" parent="1" source="2" target="13" edge="1">
                    <mxGeometry relative="1" as="geometry"/>
                </mxCell>
                <mxCell id="15" value="Creates" style="edgeLabel;html=1;align=center;verticalAlign=middle;resizable=0;points=[];fontSize=16;" parent="14" connectable="0" vertex="1">
                    <mxGeometry x="0.1667" y="-1" relative="1" as="geometry">
                        <mxPoint as="offset"/>
                    </mxGeometry>
                </mxCell>
                <mxCell id="21" style="edgeStyle=orthogonalEdgeStyle;html=1;exitX=0.75;exitY=0;exitDx=0;exitDy=0;fontSize=16;" parent="1" source="2" target="17" edge="1">
                    <mxGeometry relative="1" as="geometry"/>
                </mxCell>
                <mxCell id="22" style="edgeStyle=orthogonalEdgeStyle;html=1;exitX=0.25;exitY=0;exitDx=0;exitDy=0;fontSize=16;" parent="1" source="2" target="16" edge="1">
                    <mxGeometry relative="1" as="geometry"/>
                </mxCell>
                <mxCell id="43" style="edgeStyle=orthogonalEdgeStyle;html=1;exitX=1;exitY=0.25;exitDx=0;exitDy=0;entryX=0.5;entryY=1;entryDx=0;entryDy=0;" parent="1" source="2" target="41" edge="1">
                    <mxGeometry relative="1" as="geometry">
                        <Array as="points">
                            <mxPoint x="769" y="490"/>
                            <mxPoint x="1366" y="490"/>
                        </Array>
                    </mxGeometry>
                </mxCell>
                <mxCell id="46" value="Uses" style="edgeLabel;html=1;align=center;verticalAlign=middle;resizable=0;points=[];" parent="43" vertex="1" connectable="0">
                    <mxGeometry x="-0.6511" y="2" relative="1" as="geometry">
                        <mxPoint as="offset"/>
                    </mxGeometry>
                </mxCell>
                <mxCell id="44" style="edgeStyle=orthogonalEdgeStyle;html=1;exitX=1;exitY=0.75;exitDx=0;exitDy=0;" parent="1" source="2" target="5" edge="1">
                    <mxGeometry relative="1" as="geometry"/>
                </mxCell>
                <mxCell id="45" value="Uses" style="edgeLabel;html=1;align=center;verticalAlign=middle;resizable=0;points=[];" parent="44" vertex="1" connectable="0">
                    <mxGeometry x="0.1743" y="-3" relative="1" as="geometry">
                        <mxPoint x="-10" y="-3" as="offset"/>
                    </mxGeometry>
                </mxCell>
                <mxCell id="2" value="DataZone Domains" style="shape=image;verticalLabelPosition=bottom;labelBackgroundColor=default;verticalAlign=top;aspect=fixed;imageAspect=0;image=data:image/png,iVBORw0KGgoAAAANSUhEUgAAAHgAAAB6CAYAAAB0rJfZAAAAAXNSR0IArs4c6QAAAIRlWElmTU0AKgAAAAgABQESAAMAAAABAAEAAAEaAAUAAAABAAAASgEbAAUAAAABAAAAUgEoAAMAAAABAAIAAIdpAAQAAAABAAAAWgAAAAAAAACQAAAAAQAAAJAAAAABAAOgAQADAAAAAQABAACgAgAEAAAAAQAAAHigAwAEAAAAAQAAAHoAAAAAYBrnGwAAAAlwSFlzAAAWJQAAFiUBSVIk8AAACxBJREFUeAHtnWnsXUUVwM+/LS1YqJTYAlWiLIYal8QNqMHUhFCMaVgiZYl8aPiAIS6JK9G4AC5xQb+4RT8YjBiUYkJIQ4JAYkMj4IIGMJSwadSWFtJioflDK63z4/b0zXu9d+5t3yzvzZ2TvP+9787ce+ac35u5d2bunL9Ikaw9MHPDBfv2ZW1hz42b03P7sze/AM4ccQFcAGfugczNKzW4AM7cA5mbV2pwAZy5BzI3r9TgAjhzD2RuXqnBBXDmHsjcvFKDC+DMPZC5eaUGF8CZeyBz80oNzhzwvMztO2De0pNFVn+++rr+OyLbnj6QlPVOL2owcC++XmTxidWHfY71QbIHrHCPOmaAk/2+QM4a8Cjc2RdE+CB9gZwt4Dq4t35FhE+fIGcJuAkuD1Z8+gQ5O8AuuFXj3C/IWQHuArdvkLMBfChw+wQ5C8CHA7cvkKce8Dhw+wB5qgH7gJs75KkGvOrj1YAFkOjb0v0ZZ4y5rguFjmmWiVw+eqwZM162XGThYpE9L4k8/4zIvx8R+d/uYVcvWipy6ddFjjhqfLj2lbVl2DMr8psviezcZqeKzJsv8oa3iRx7gtF9pMiuHSKbN5lybhnONwnfJgrwm94pcvYVIseferBr9rws8tCdIvffIvLSi4N0IC9YKPKs59mhJWYy4uVdw3CPPFrkrEtE3nGeAbtgUAbd2/qkyMabRP7xVz2SfjsRgGfMjWLlWpF3n9/ukJ3Pitz2Tf9A2zQD/MIviixa0pZT5C+3i2y4UWTf3va8oXNMBOAPXDkMl2aZWrBjc9X8nvRWkde9ceCK2Z0iv/qcyH+3Do6F3Hvt8SIf+a653y8aaHnunyL/+ru5hZhmfPEyEVofmmsVIP/+5/ot3Tb5hD+OsWvuYxtF7vmZeWgyEG057UyR8z4hQjOJoz/0aZGbr7FzhNtHl8Ll9nDnD0SeeGBYH+nnXCVy+tnVcWziR5q6uU7+FM09VwW46284GC7pOHSdeUrWB61lp4uc8l49M9wWHehC0E0ZRuGSxg+SsmODim2bHou9TQqYpk0fqGiW7/mp2/xtT4k8uH6QZ/n7B/uh9mwd6KYMLsEGbEGwDRtTSlLAJ+6vGTiApkznaV0OeXTDIFVr1uCI/z1bh627SRM22M2ybWPTOSGPJwVMP1eFB6ouYudbeFyXM8bLY+uwdbuuauc72rLRdU6otKQPWdqUYRyDFV1kvvWkOsf8PFdc2uWsw8+DDhV0z+7Rb81b25bd+5vr5txhU5ICZoRKha5QF2EESWXOXJH3Xa7fwm/R/fh97XpsW2wb28/0n8P6ffq/eNsVGX5khAqhn3vqGdV+018GRM78cFNq+OPopgwuwQbts2MbNqaUpDWYbgfDj9oP/uAnq25I3ZMqjj33avNkelrlLpz359vMaNG+sO6bmRF5z4XV0CS6KcNdP6kfpVp6StVX1xJhm3br9FjsbVLAGMvY8ptXVEOADGJc/q2qK8QT647/iMw392aaxjNM7TlhP1zO+8PNFWD2Q8vu2WooFT1vP1eEYcs//raqnaQtfr3IW1aKvGt1NRFBPoZUsS21TMRQJQ5bc91gtKjNKQ/fJfK7H7Xl8pu+6mMV3C5XZdBj3Vfjj5fXla3ljlJ3iv9jzAQxtrz5Mfe1aZY33BgfLqXiB4VufWbgWJ1gA7b4nt2q09Xl2NxVy6+9tktGn3mYb73oy2ZA4G/VlBzXZmrukbtFmHJD6JLMW1Dt64MNzeIDt1bHUvxlznfuESInmVsGsvcVkVfM54XnRJ5+sJoqvPcXA5vIw3TmmutFnnnczBs/z5G4Mi+uumrRF+uCWDrCZP3ohPpTfxLho7LiMtMVMh8k9ANVpcX9154CvH+dyH2/bs5/zBKRS74mwmwUNo/7xkmzpuaUqE20vimhC8EYEGCyPlfhoXH+ayrrUq2FigZ4FK6+Q9V6rwrcDQr548K21MtkogBugjvOC3Ihwfi8dt2LfDGXrgYH3Ge4+kNJCTko4AJXEadb8BYMcIE7gKt7KWpyEMAFriI9eBsbsnfABe7BUEePxITsFXCBO4qy+XssyN4AB4M70+ykaU+JAdkbYIKM6QiVDmJgQBG3B+oga8A295ndUr0B7qYug1xT1qJ4A0x4QH3tNdW4a5Sfj+eh07pbG770Jd4A1zU1XobkPDvUl+N8XKcOru8ZJ2+AMTgYZB/enLBrxICLyV4Bc8ECGS+4JRZcSuEdMBctkPFCvcSESwmCAObCBTJeGJbYcNEeDDAXL5DxQiUp4KI5KGAUFMjD76Hhk5gDQcEB9x1yqpqL35EogFHUVJN56d0pUzZyZNuCbfoGKcdj1lwtRzTAKByFTAAT3od2yhQPdGAbNiIp4KI3+nvRCpkIcrd/ezgOFQUiJsZyE8jk1UBoZoG3vT6XhWCpRV/CpxxnranWTO3aXgVC27Rx+J1uAqjx3vf515iVET+sfuCxyz8Ra5MwmpfDiWZjh0wYdQbLRmIuOhvVzypD1iPXBUHTvCxdueP78UI8qd6mbdQmuqkQ3KuIQ+WCy7k4duVaERaCxRZ0otsFlzJhA7a0PltEMiB6Ez1qF2//E0FO41CxnpZoNq8uHzVxO1ijxPJRFl/r2mCWcG43S0tZHxxDqLnoVNn6hFkjpctHTYgGIunYy0exBZt++anhsIt6fsxt8ibajnJHkDHiULkWgKujDywA3xvWXdxzdQE4mh6+2ywA/3HzAnAWmvGjRSYh2l3SGkzUVgJ7qhBBrg4u6Sz6YmU9/UpqMk1l6AAsWi7dUnOb4JKHsmPDBV+ozsA2gpOmXOWf9B5M06v3NGI/1kWQU+eyBTJNYypBt726sK4c2IAtCLZhY0pJWoOJt6xCYM8uYgc1YX0uSzhDCl0hovkgtu7qSP1fbNFALLaN9bnDHk0K2I7OqgMCbebacaf2mhrtWp/bdq0u6cQGUcC2bte5ti12XC/XOaHSkjbRREpX6RrT0c7HAENosXXYul167XwvWja6zgmVlhTwFjMooEJYYX3tVo/VbemOqLTF9NB842xtHbbupmtiA7ao2DbqsZjbpICJ6agxOWiuz/mo23TiUBGqSGXTvboXbmvrQDdlcAk26K0H2+y4la7zQqUlBYxRdCNUCKa9+rP1NZkIchdfN4hDRc2yY3noNXxv0aG1mG4dZaiLyEfNpewaEJxy2Lb5LlfX6yUf6KCg9mAH3zWk/3ZGskwcj0kO6U8gtOPMSNakhvSfCMCMFq1cOwhpCOQmKf+Uo8kz9ccnArAWjVpwqP9Wh1BFDA22BnNRJR23TBYwn2v/zyT0lH+r09GBrmx0M4iUTjBt+p5N/xgLuJd9wzzUmGbc54oAfc2G/uxoHC/Kbf9jLPq5dIV4Wk79QFXn04mqwXUFdB274nvV/0Ugj683JhSudtl4Er7pM65STHZa8qfocdzDWxKARQAy7lqoUbhcGx3TLFMNWF//8QG5Dq7PZj/Vj2SqAeM0H5BzhYt/ph7wuJBzhpsN4MOFnDvcrAAfKuQ+wM0OcFfIfYGbJeA2yH2Ciy+meqADA1xSB5P8Oojha3DEVYbUaVk8RTc5sa4L1Se4+CVrwBg4Cpljfai52IlkDxgjFfKOLWZCwHxyGKHCri6S9T24iwNyz9OLGpw7RJd9BbDLOxmkFcAZQHSZUAC7vJNBWgGcAUSXCQWwyzsZpBXAGUB0mVAAu7yTQVoBnAFElwkFsMs7GaQVwBlAdJlQALu8k0FaAZwBRJcJBbDLOxmkFcAZQHSZUAC7vJNBWgGcAcRiQo898H+Qp3IKe6mzpAAAAABJRU5ErkJggg==;fontSize=16;" parent="1" vertex="1">
                    <mxGeometry x="690" y="472" width="78.69" height="80" as="geometry"/>
                </mxCell>
                <mxCell id="3" value="Execution&#10;IAM&#10;Role" style="group;labelPosition=right;verticalLabelPosition=middle;align=left;verticalAlign=middle;fontSize=20;" parent="1" vertex="1" connectable="0">
                    <mxGeometry x="1030" y="510" width="72" height="68" as="geometry"/>
                </mxCell>
                <mxCell id="4" value="" style="rounded=0;whiteSpace=wrap;html=1;verticalAlign=top;fillColor=#C7131F;strokeColor=#ffffff;fontColor=#232F3E;sketch=0;gradientColor=#F54749;gradientDirection=north;dashed=0;fontStyle=0;" parent="3" vertex="1">
                    <mxGeometry width="72" height="68" as="geometry"/>
                </mxCell>
                <mxCell id="5" value="" style="sketch=0;outlineConnect=0;dashed=0;verticalLabelPosition=bottom;verticalAlign=top;align=center;html=1;fontSize=12;fontStyle=0;aspect=fixed;pointerEvents=1;shape=mxgraph.aws4.role;" parent="3" vertex="1">
                    <mxGeometry x="5" y="17" width="60.27" height="34" as="geometry"/>
                </mxCell>
                <mxCell id="6" value="KMS Key" style="sketch=0;points=[[0,0,0],[0.25,0,0],[0.5,0,0],[0.75,0,0],[1,0,0],[0,1,0],[0.25,1,0],[0.5,1,0],[0.75,1,0],[1,1,0],[0,0.25,0],[0,0.5,0],[0,0.75,0],[1,0.25,0],[1,0.5,0],[1,0.75,0]];outlineConnect=0;fontColor=#232F3E;gradientColor=#F54749;gradientDirection=north;fillColor=#C7131F;strokeColor=#ffffff;dashed=0;verticalLabelPosition=bottom;verticalAlign=top;align=center;html=1;fontSize=16;fontStyle=0;aspect=fixed;shape=mxgraph.aws4.resourceIcon;resIcon=mxgraph.aws4.key_management_service;" parent="1" vertex="1">
                    <mxGeometry x="480" y="474" width="78" height="78" as="geometry"/>
                </mxCell>
                <mxCell id="13" value="Data Portals" style="shape=image;verticalLabelPosition=bottom;labelBackgroundColor=default;verticalAlign=top;aspect=fixed;imageAspect=0;image=data:image/png,iVBORw0KGgoAAAANSUhEUgAAAEgAAABICAYAAABV7bNHAAAAAXNSR0IArs4c6QAAAIRlWElmTU0AKgAAAAgABQESAAMAAAABAAEAAAEaAAUAAAABAAAASgEbAAUAAAABAAAAUgEoAAMAAAABAAIAAIdpAAQAAAABAAAAWgAAAAAAAACQAAAAAQAAAJAAAAABAAOgAQADAAAAAQABAACgAgAEAAAAAQAAAEigAwAEAAAAAQAAAEgAAAAAggmnegAAAAlwSFlzAAAWJQAAFiUBSVIk8AAACD9JREFUeAHtW2tsVEUUPrNsl0dridGkIA9BSgSBSAwSf2gCYgIo3SYqNJBogjGKJmAMLS+JLC+BpaBADAZCMEb9IRKlRfFBAAP+wWei+EQxQSARAUFaoY8dv3PbuZ3dvY/d7d4yNDthmTNnzsyc882cOefe3RIVSgGBAgIBIiACnNtz6tpKKZVA9R7hq0d8qhxGRVQNwckkaICQdEEKOiITtGVBvfhMzZXvOpTvCYOYL14pHw8V0bGQoDmAcihAigCkMtSPhEJ0CGBvJgJcARTjAYpH5RRYvhOA9PSwf248Sis8+nPuCgR1N210t3KT0d0tNkGGS0rpZ4BzmyUv6ZsWSfOu/E5HI7fSkEiYVqFvOvfBYVtkM41YsE/85jZ3LvxwLoO6akxxCd2rwAEAZxuu0gOxj8V5a/1j9AtgqaqN0s2QmQjXC+OOmoW+lbp+DDLPI0N0J05DJCHp1//+pf2xQ+KyLudGG+1ibJSm+Ls2ODZTSBi8vaOZJE/snnwCRQ86iPvrFYAY7xGi94r70p84zc/b4zyILj1Buvvo7qbzdV15x1UbIa9R0XoNGZ1vy/PFjr6dkE07BOD3BX/j+kp5e80eMUefL5VOG5wqcE3bkt2orWD3H5xOsodqqxr8qKLhhpY8pwQhSdsAhGUfuyc+WwFyLT4/Knn0Px2vkDNV26k2GqAGok9h0EVWHMaMHB+lHbhTSrgdIxmCCz0Hcja3uQCsXRaBfAkD2qIeLnbcXSNq6sSzOC01R/fQGID1hiWH/+B6Lyjaqca6Zhfs8FzkOshz7MKX6w8wcjAA6WdzJe2qrhMzuA33PYFqCNMtCbpvUb04wrQqDHJJXzqDtgX2lVYauHSvOKX69droE8SKHj9Nr6H6TlOajRqvgwOwGptbaZEtI6m/ok+10BeKVjVHMIyxXa2XoFtUX2ptNEDrHpIjhw+gb6H0mFTF9TbA6hMOtZ0Y5sMtL6j+gUUdfMVj9wQ9SLWbRYe84qk6KYrFpsrS4gjF8ZwzEz5cqoSCrp2i2LqoHIf7YT/uAI44VrHuI0lHAMgZnADW7x7Qg0G/WVMvDrSL8X11GLSVQOJWR14kq3BDYXhb6ROlueoEYuzpxXXkmlwmAVQSoW2YoopXuJZldVSWwbC90EGBczmRoCUnW2jbln3iaoduUsSn0VTRRF928HDvSNocbs+wYct0TiYTUm7H01oD5q2E7GwlD94WHTzFV3USQECzEshe89JT0CYoUcaKQKez1Er3L/hAfJ+umJAL9tKHqXy+lBHhNuAEzrf6kGmDnpgqhyN1uPE4bUzl6+0kgABOL9XpdOxVX5A1ItAduERmWKdYEt5mUNVCR3DctVg9WfbHPtt3jLsk3dB7KI2lY3TUTca8SzpBjwEc6xxjh99fWCcOuinvxK+tkHdHetLX2Gwr5DvJKB4WGYsU4nOkEk8qXmptHkCCJiglcXpeV3QmtXX6QvSJuoBxEuGhtBufhxNNVN7aRINkK1xN0iZ0IA+1ksswQNq+vkLOclrD2inVkcnzkZINql4fledh4I2Zzq+ugtgoGSkup69g0GgeC1D+gn/OcHvbuGaKHBKO0G6sdZclj1wKg0YjGp7Q1zbvBBH11hXMlC4eRk/Z4PDpaKFJbuDwnIs/En80XKJJAOUnbgOoPnDstUzrxUSAXsbuN+lKZkjPs+UkLa3J4GJHRv1Pq+wI+QDo0VXT5AB7HhCuLqYLBU0rN8l1nbUVchQyaSsNALgXGy5SPxh/JdP5aqPyAJCYaMlLegbPdPx4Y5WkMK+Y11uNpHCc0hn58rniUlqEu0yxfGtIIk1qK6DtuZjTLQBCtCuz7wq8v4axy9rtzb4SHQ+6ngC5HXsTIl2q1dh1x1cVqXIZtk/qct3iBC2so7fXRa3Xh8N147KlAfSFxku0Qx/XLQDih02A9JZuWL5o23XzNWF3m6ebnKDObwuiHl/sVjDD++uYmrEAUDsSyKRtUMCyaSMAwu69hL2bj+2zv9dq15ufqZrAr0VU9fz2QcnnuzbjDnIBh41l0ABSdb4NT5sPT/5pPDCMAMjp5OjK+vXrsvmmjXAx3Sg9QdWTUl2mK2kjTlBXGpztWgWAfBAzzsU641ZBREMjThCHcq+N9Ou3xwYQDY0ACAF2gxsIzOc8yAbBg/CLdn79TlMb4WJI7ZdAOf7krWQbDfENK/61PWroSphxgnSNDKMLAPlsiBEu5qNjTt2diYb6goEAtCYqyzEx//zE6cffV/F75nfy/XtmNqr9Qk974FUGuwUC1e9UBwJQEdE+XHflTgsyTxTRE6g69XrUcW6Ohi6hPptoqM8dCEBe4FiLe4DnlezpiiuD9dcgQUTDYADSLMGPBGKqmfJSSrGTa5cTkCyU9Bok0PdEgQOEXV2ujMPFGVO0W51NMpeNrNt6io+5cCjTS+AApS+ZOUdP9vRR+YpQ+pxudOAA4U6JuS1+PfADBwj3zrLrAQg3HYPJpCUdd1vQ4vv1ew7u2s5ATlCimaYg1+HfCDolbU2cKHatmbmvFghA7VnymtzVMmdkIADly7yujFZuOgdzB7mtlgGfM+QMxCyRbGT95kRC65gHGQeQ19tF3UgGB8ldRm8a9XHZ0sa5WBDPU9mCosubd4J07QygCwD5bEIBoAJAPgj4dBdOkA9ASVEMofMcQudNPAZP4c0+Y/mvi1v8ZFL7sQaWyL3gh+KdGo/R3uMl/a1rlwxQgl4VIXqRBfAUntSnD9Jo/IVjdsVbuwzm6vQE3mtgA7fqEkku1lhPy/G3oSuQrCWhqA/orjR7D7LplQ11FOuuNhbsKiBgIAL/A4FMS+pi1Am4AAAAAElFTkSuQmCC;fontSize=16;" parent="1" vertex="1">
                    <mxGeometry x="693.35" y="648" width="72" height="72" as="geometry"/>
                </mxCell>
                <mxCell id="29" style="edgeStyle=orthogonalEdgeStyle;html=1;fontSize=16;" parent="1" source="16" target="27" edge="1">
                    <mxGeometry relative="1" as="geometry">
                        <Array as="points">
                            <mxPoint x="620" y="360"/>
                        </Array>
                    </mxGeometry>
                </mxCell>
                <mxCell id="31" style="edgeStyle=orthogonalEdgeStyle;html=1;entryX=0.5;entryY=1;entryDx=0;entryDy=0;fontSize=16;" parent="1" source="16" target="24" edge="1">
                    <mxGeometry relative="1" as="geometry"/>
                </mxCell>
                <mxCell id="16" value="DataLake &lt;br&gt;Blueprint" style="sketch=0;pointerEvents=1;shadow=0;dashed=0;html=1;strokeColor=none;fillColor=#434445;aspect=fixed;labelPosition=center;verticalLabelPosition=top;verticalAlign=bottom;align=center;outlineConnect=0;shape=mxgraph.vvd.blueprint;fontSize=16;" parent="1" vertex="1">
                    <mxGeometry x="640" y="349" width="50" height="47.5" as="geometry"/>
                </mxCell>
                <mxCell id="38" style="edgeStyle=orthogonalEdgeStyle;html=1;entryX=0.5;entryY=1;entryDx=0;entryDy=0;fontSize=16;" parent="1" source="17" target="33" edge="1">
                    <mxGeometry relative="1" as="geometry">
                        <Array as="points">
                            <mxPoint x="836" y="360"/>
                        </Array>
                    </mxGeometry>
                </mxCell>
                <mxCell id="17" value="DataWarehouse&lt;br&gt;Blueprint" style="sketch=0;pointerEvents=1;shadow=0;dashed=0;html=1;strokeColor=none;fillColor=#434445;aspect=fixed;labelPosition=center;verticalLabelPosition=top;verticalAlign=bottom;align=center;outlineConnect=0;shape=mxgraph.vvd.blueprint;fontSize=16;" parent="1" vertex="1">
                    <mxGeometry x="759.69" y="349" width="50" height="47.5" as="geometry"/>
                </mxCell>
                <mxCell id="23" value="DataLake&#10;Manage&#10;Access&#10;Role" style="group;labelPosition=right;verticalLabelPosition=middle;align=left;verticalAlign=middle;fontSize=16;" parent="1" connectable="0" vertex="1">
                    <mxGeometry x="419" y="130" width="72" height="68" as="geometry"/>
                </mxCell>
                <mxCell id="24" value="" style="rounded=0;whiteSpace=wrap;html=1;verticalAlign=top;fillColor=#C7131F;strokeColor=#ffffff;fontColor=#232F3E;sketch=0;gradientColor=#F54749;gradientDirection=north;dashed=0;fontStyle=0;" parent="23" vertex="1">
                    <mxGeometry width="72" height="68" as="geometry"/>
                </mxCell>
                <mxCell id="25" value="" style="sketch=0;outlineConnect=0;dashed=0;verticalLabelPosition=bottom;verticalAlign=top;align=center;html=1;fontSize=12;fontStyle=0;aspect=fixed;pointerEvents=1;shape=mxgraph.aws4.role;" parent="23" vertex="1">
                    <mxGeometry x="5" y="17" width="60.27" height="34" as="geometry"/>
                </mxCell>
                <mxCell id="26" value="DataLake&#10;Provisioning&#10;Role" style="group;labelPosition=right;verticalLabelPosition=middle;align=left;verticalAlign=middle;fontSize=16;" parent="1" connectable="0" vertex="1">
                    <mxGeometry x="608" y="130" width="72" height="68" as="geometry"/>
                </mxCell>
                <mxCell id="27" value="" style="rounded=0;whiteSpace=wrap;html=1;verticalAlign=top;fillColor=#C7131F;strokeColor=#ffffff;fontColor=#232F3E;sketch=0;gradientColor=#F54749;gradientDirection=north;dashed=0;fontStyle=0;" parent="26" vertex="1">
                    <mxGeometry width="72" height="68" as="geometry"/>
                </mxCell>
                <mxCell id="28" value="" style="sketch=0;outlineConnect=0;dashed=0;verticalLabelPosition=bottom;verticalAlign=top;align=center;html=1;fontSize=12;fontStyle=0;aspect=fixed;pointerEvents=1;shape=mxgraph.aws4.role;" parent="26" vertex="1">
                    <mxGeometry x="5" y="17" width="60.27" height="34" as="geometry"/>
                </mxCell>
                <mxCell id="32" value="DataWarehouse&#10;Manage&#10;Access&#10;Role" style="group;labelPosition=right;verticalLabelPosition=middle;align=left;verticalAlign=middle;fontSize=16;" parent="1" connectable="0" vertex="1">
                    <mxGeometry x="800" y="130" width="72" height="68" as="geometry"/>
                </mxCell>
                <mxCell id="33" value="" style="rounded=0;whiteSpace=wrap;html=1;verticalAlign=top;fillColor=#C7131F;strokeColor=#ffffff;fontColor=#232F3E;sketch=0;gradientColor=#F54749;gradientDirection=north;dashed=0;fontStyle=0;" parent="32" vertex="1">
                    <mxGeometry width="72" height="68" as="geometry"/>
                </mxCell>
                <mxCell id="34" value="" style="sketch=0;outlineConnect=0;dashed=0;verticalLabelPosition=bottom;verticalAlign=top;align=center;html=1;fontSize=12;fontStyle=0;aspect=fixed;pointerEvents=1;shape=mxgraph.aws4.role;" parent="32" vertex="1">
                    <mxGeometry x="5" y="17" width="60.27" height="34" as="geometry"/>
                </mxCell>
                <mxCell id="40" style="edgeStyle=orthogonalEdgeStyle;html=1;fontSize=16;entryX=0.877;entryY=1.011;entryDx=0;entryDy=0;entryPerimeter=0;" parent="1" source="17" target="27" edge="1">
                    <mxGeometry relative="1" as="geometry">
                        <Array as="points">
                            <mxPoint x="785" y="270"/>
                            <mxPoint x="670" y="270"/>
                            <mxPoint x="670" y="199"/>
                        </Array>
                        <mxPoint x="650" y="370.0588235294117" as="sourcePoint"/>
                        <mxPoint x="614.0000000000002" y="207.9999999999999" as="targetPoint"/>
                    </mxGeometry>
                </mxCell>
                <mxCell id="41" value="Identity Center" style="shape=image;verticalLabelPosition=top;labelBackgroundColor=default;verticalAlign=bottom;aspect=fixed;imageAspect=0;image=data:image/png,iVBORw0KGgoAAAANSUhEUgAAAHoAAAB4CAYAAAA9kebvAAAAAXNSR0IArs4c6QAAAIRlWElmTU0AKgAAAAgABQESAAMAAAABAAEAAAEaAAUAAAABAAAASgEbAAUAAAABAAAAUgEoAAMAAAABAAIAAIdpAAQAAAABAAAAWgAAAAAAAACQAAAAAQAAAJAAAAABAAOgAQADAAAAAQABAACgAgAEAAAAAQAAAHqgAwAEAAAAAQAAAHgAAAAAzuYkvAAAAAlwSFlzAAAWJQAAFiUBSVIk8AAAFA9JREFUeAHtXQmcHEXVfzM7Ozt772azmxBCEgynEOQGlVMOERPADyPHJwYTCBBACBASQhDCEYKgIIbAFz4FJBqQSySciggqcskVlXAEMSR7Ze9r9pjje//ardre2ZntnpmamU5//X6/3anurqqurn93ddV7//faQyybDpwZxa8rzuyB6W+t93ideWnuVcX2gAt0bI84dNsF2qHAxl6WC3Rsjzh02wXaocDGXpYLdGyPOHTbBdqhwMZelgt0bI84dNsF2qHAxl6WC3Rsjzh02wXaocDGXpYLdGyPOHTbBdqhwMZelgt0bI84dNsF2qHAxl6WC3Rsjzh02wXaocDGXpYvdofdt/27TKPAfntRwV67Uf6USeSbWE3eslLy+PKIwhEKd3RSqKGJBj7bQn3/+ph6/76B+jf9x+6XlfH2eXAGu1OJ8r8whUpnHUslxx1Ovgnjk+6Uga311PXsn6jzty/wTbAt6fLbewFQiWwNtH/PXWjcBWdR0Zf319LX0VCYup5/mVrvWUuh+v8/gANoWw7dnuJCqrpkHpWecjx5Bu9FBXS4o4uCr79Dve9/QP0ff0ah2gYKt3VQdCBEnnwf5ZWXkm/HieTfbWcKfOmLVHTofuQtLhLlMbyXfvNrVHzsYdT2wKPU9ovf8HAfVnU7OWG7J9q/6zSa8KOllD95B9XvUQaj+6W/UeeTL1DwjfeIIhF1zDTh81HxkYdQ2exvUuEBM0Zk79u4iRqWrKQQD+1OFtsN3ZhkTbz9h+oJROd3v/w6Nf/05xT6vC5tLAL7703jF51P/l2mqroiXd3UsPjmwRtI7XVWwlZABw76Ek38yTLyBgKilyO9vdR8273iKdba7Xl5VH7myfzu/y4P9fmi6mgoRI3X/Ji6//AXraeyS2UA2hbraLxPJ/7kGgVyqKmFts65XD/I6Hl+DbQ/+DjVnr+Uwi1tAgsPD+81N15BxTyrd6rkHGhvabF4J3sDBaKPsQaunb+EBj7dnNE+73t/I99Ml6k1toef9JrrL6PCg/fN6HlzVXnOga5efhnl8ywZEunuoboLl2l5H1vpUCyxas9bSv2fDCpU8GRPuOUqwrrdaZJToIuOPJSKDz9Y9Wnj8jto4D9b1XY2EpH2Dqq7iG+uoXW1t6SIJty8mDwFgyNMNtqQjXPkDmhe81YtnKeusePxZ6mHl1C5kHBzG9VffgNFgr3i9H5+oqsuP3dUU/y7f4FKv3UCVcw7jSd0p1DREYeQp6hwVD477siZwqR89kw1ZIfbO6ll9YM57Z/+j/5NTStXUw2/SiBQ1nQ+9Qfq27CRSmYeQ5UMrnFtLxsbHRgQ6tXWNetsrV7NDdBeL5WfcZLsK2q9dx1FGOxcS9czLwmtGV4n0MiNX3yBAK+Yn9xEgiVa6UnHiRn7tutup+4/vpooa07352ToLmS1JKxOkEhXT2aWUSl2a9OKu9QQXsBDtRFktLXruT9RK6tO2x9+inr/+ZE6i7cwQDUrl1DpycerfXZK5OSJhhVKSufTL1K0t09u5vw3zGv49oeeosrvz1ZtiUaj1L7uSWpdvZaifSPbWvDFXan6uoXk33mnwVFgyQIa+LyWet/+hypvh0RunmiDNQrDpd2kg59WaMukNN20ilpu//kokHEcNu+tZ19OfR98IrLDcFK97GIiXqrZSbIOtG/HCeSrqhR9AEsUOspuEm5uZfXrGupn8kLTj+4xfbVEe4JUv/B6fg11i0vJ32kSlbMRxU6SdaD906ep65dPgdpho0THY8/SltkXUMcjT1tqFW6Olnt+pfKWfftElbZDIutA+3aoUdcd4neZkwRmVPVUM80JdCe7SNaBliQAdECYtVJOEkwqYTeXUnjIfjKZ89+sA+3JM5zSgUGvgm+9r0DF8swuYuj1zDcJS5ECpvdIgeXKadL/4afqkgr23p38e0wnXnepfblKZGUNUHTUoVQ59zQqYLKfUTwFfuOmI9ID9Y3qOnw1VTT5wTv4FdVJPX9+QxATg6+/S8Tr8mxLRoH2Me+reumFVMjskVgJd3aRHdfQse1MdjvaHaQ+1psXMJlCCgiLpawvx98Akxnb1z5BHU88T2RYq8u8mfrNGDmw6IiDqeamRYo1ggsAPajr+Veo+4U/UxCaoyxeqLEDcQOChOifsiOT/0vIw6QHTKSg4hzYvFWQEeAAkKp4GVho/wpm7EGFB+5DeLJjZWBLPTXdspqCr70Te0j7dsY4Y6X/9Q02CJxPHjZeQGDhaX94PdNrH6ZI56BSQfvVmFQIjjicAGCwkHr2sYqAztTz17eo83e/J7BR0hFQpUqOP0JYwaSySNbXxk93y8/uT47ZKgtb/M0I0EVHf1mwNCQfe2BLHTVccZOi7Fhsm7ZsYH6OW/A95njvmXKdoAW33PVA+k8fq0XLTj6OKuefSXnjKlR7upiU2LjsVuFSpHZqTGgH2jehmiY/tIrA0oBA81W3YJlSImhsu2lV3vIyGn/VAio55quj8mJyBNUrfLJAEIwy4QDDd15lOeWzcSIwY3fKqygfVa7nL2/SthvvJBAV0hGsNmpuuIKKvnqgqqbjsWfYHn632taZ0A40zHSyYzHpqP3+FYppqbPhZnXBQ6NmxZUj3o3RfiYIvPCKGIp73/tg7KGSl0PQasHOXHLCkQQTpJRwWzs1Xn1r+jxwPkfVwnNG2OXBL8+EPVsr0PnTp9DkdauUC03tuYup991/yf7J2q+YBK5YTN6hpRtMjJjdt6x6gGCCTFa8/JSPO+9MQSFScw6eRG5jflvXcy8nW92o/PBKKebXHQS8tc9PPY9wU+oUAK1NYVJ2ytcVyN0vv5YbkHkoRMdJkMOt7VR/yXUE5kcqIKOzI1wHhtS6C64W7rjYB7Yo2Ku4qdKVxuXcNn6VQDBJLDnhKJHW/U8b0MVHf0W1reM31iw+qoCGBGa2GK7Bz4YMbK6lrd9bSMG/va2hdhJEAmF3/vjfoj483TU3LiL/7qz5SkOw7m5f+7iqoXTWMSqtM6EFaN8ktjEP+S2Dm23U9+psbKK6oGGruelK8g4xMrFGxatDUngTlUt2P0YFPNlgkEDw7p5wyxKmBqen4et86kXVlIJ99hzhe6YOpJnQArR/+lTVjD7wqJLxdlQlU09ULjiL/NMmiwqg9Ki/dHnGJoEgMYr6mTQBgfNBxbzTRTrVf7Bly6gMGCmEfjzVyhKU0wK0UQGBdXM2Bfbt8u/MVKds+vEadgJIXaulKhojgddCM59HSsVZ3yJo29KR/k8+U8Xj0YrVwRQTWoCWQybaEBm601NsT9LF8DRhcgQJcrySrvXDw2DSlSVRADP54Dv/FCVw/vLTZyVRenRWTBylQIWqWwZ7KN1ahyZAqAZO69kSkBhKTzxKna717rUqbZbIY95a8XGHUYDXy97SEgo1tfKEawN1v/hqXBJgvPpa736QCtesFIdgsIATAvhjqQjmNlIQuUG3aKnR2EhECMqWQN0qfZzBse59z9q6vWLOt6ninNPZ4DLSvwrqydDFZxO43TArmkkvP9H97PUJFx7cdFgPdz39R7NicY8bfb10r6NxQi1Dt3F265+6Y9wLycTOYrZzS+lmq5gVgffFuIvmjAJZlvWNH0cTbruaSk48Wu4a87fT8KowqjTHLBTnoK96nNqLyZlu0fJE97PSXwpYFR5/vnbtjqzf+Fuw565qs+fVt1Q6UaL4+MPJyM7EKND52+cpvK1FuMqWnzZLLBMx862++mIOiLORQiaTS8QxkwLVa6qSv/Owqy6Wh7pFzxPNsbv6h9xdMTGDl2GmxVtRpnTZ8ILETNhMKuf/t8rSyUNs7dxFIvYYzJGIgrDljIsEaQCZcLNWzv2Oyp8o0ffhJmFnx3HYnVOhR2HyJeOqIERW/0fDdKRE5012vxagcVLE75JSMedUmczYLyxlUoRPtQk9B1Yp+VqB40DTLWwpilnvw1betGKVrJbgv20qHK0w1NCsshnpzGqnSQIkBalHxzwjEy5K2oDuePQZvrMH/ZIK9mAjP5MPMineomGLknEymOic+cwmkYJJFEyT8QQKH8Qtg+Qx+wQjh5lE2KIlJenJKLNiETxHCpz4MiHagIbyH8OflKqFcwmsz0yJxz+sdgSDxVQEaUrmMiPnGY5bYHBG+/plxerJVDtMEhVzZhNceCCwjeuwiMU7pTagUXnb/Y9wPJDPxHkQRmriquszos7DCRDcVUoekwzMROqnkS+w714JQ1dA/ShJB/C6wA1sJsan2Ai6WTnM0ivnn6Gyta75dUaGbZxAK9BY/8F4Ls1ueayImHT3CstLFXXFFhIydBSy5hmWJomKDmzaTFI9C1Zm1aL5o7IiNGX1VReq/QhmZ0XATJESarG2NAKpASZVaW0LvvEuwd8rU6IVaDQSs1+h9Gc6LwS0IoSLENF+eEKkS7AkigxpobD2tQI2IitIKWOH9Un3rhQ3YYCZmmWsL5/8qzvV6wZus233PSKzJ/wFMUFa7jBjDtU2JsyLA/AmBROn+pofiJk99sGg0bCUOWMZFC3r6Nj29f3jQ6o7dwkrHpZx3I+J4nDx175C0GRB4wQlA4jsqaoLRYU8Y+7d8CEVHTIYFwzhJUEjHkugnw7sP0MQ9JAPQzj+YgWslKabV1syjgT2HV4798NWHU8FzCriQm4nSAViho3Y4kPSy30FckSmbQQZARrXgLt061mXUtVl5wiaLfaBGYpQEfiLMlBYFiHgKpY7Vjje2264E9UoQVQBCXTJ1480BRoFm0Du43V/xdmz1ROlKuQEjAsIWmOVu2XUhgXffM9YlWCMgIkCDxUj7wyZYBMAQaNl9S8z9l42NkbMRTMdmB3askrmXRUdur/x3EmnPz1opIUIw+BOT9wrbiAMm5tnzbVMGcpjogRujkGjRjEzO1sHrV88KlgdaaDfnvL0fYooIBgosMcPibekmKa99JDcFL8YLRChuGXV/WTUKI7IpHkDnLGMPdHGtmIor7/4WspnPTiI7EVMovfvuvPg5xGMGZNMh7Y2UC97L8LlByElKs89g4fcuyzVEuZQlO2/fIzM59SJq8OESroBY1YvSBeG7Ji1wxEAljKEvOx59e/sivNc1iIjGppCWQFanhBDNSZE+IO1Jn/q0DcxQAEairQr81r9bbv/UeXbVcrWJ0QokEs8q3Wkmk/y11EexAPo0aE4MgqcF3ATZPodbDxnvHRWhu54J9a5b+Id1yoyPEBGMNdMmPpi2+xhztgOrCsIMM8LgmG5mWOexIIdWy7b21rpvtluvPF8zbf/rzIs4Cs6mABlQ6BGreNXEj77AMFks+rK80dYyLLRDivn0L6OtnJS3XnwSkAQdykl/M0MrFNpyMlP7s/ELyZu2wPYjgAaACJQTPu63yksMVESwd6zEFVhewDbMUADYQzhHUwkkII17uSH7tLiUSHrTPRrd7CFiuaSSbtdl+gCtrf9guvFS63C/fYWTcfyR6yXWc0JA4XUd1u5Lhg4qi6dJ4K/glCApdyYwp9kggts4QF7s1q0Wryziw47SChhchk4787aj5Y7YtYdr/PhFwU6kNEPGfmEg/srbwgiYT8bOkKNTUIzBUaJcJudOpln0XsQAALpzyjtv35SjBrGffHSiOG9w8+W22Y2rtWbMt4F53ofKDpwOi9jEoT4dqWGBm2PYANoxw3dRixhGw6yNgqkfuiW8YU7o7OBMW+8tIi5wq6x+Fqef9qg5S3AcUmg2gy+9na8IsP74gzjhTxnwOsj28O4o4fu4R43pHi5BaACB+1DCPYGehGGaxGshs2SkdYOGqhrpH4m/IFuFHzz/UEyP9N9EKHAGH666db/YaPEekPl8ZN2GMYdP3TH7/oU9wJs9tiUER0QCrLhyhWWKss12I7RjFnq7XQzMdtzRFw07wgS2pi122Hp5ah19Ji9neODuQbbBTqLN0AuwXaBziLQOFWuwM6qPTrLfar/dAaOdyGzZaasv2/EOUAohKtPm4GEOCLD0IYEWypV5KeXcDhTJk73iY6HRKJ9BuIfIh+B/Wn8Q5iLcaygQfwwM5FgSxMn8sPT0+gEaFZHMsddoJPoLfhFWfF0FN+nvmSuac3ZBNuxum7TXk41Aytd8qo4jqdhGBdVgXTA4BqVKptnzrX0GcPYdTbqgxOgrmHcXUenAjbTlOE8EG5sHvnHZMPGa24T8bhltZ4S5sJZkGw82e7QbQEIy1lYqRLtie+laVZHQrBP/YZZUUvHXaAtdVN2MsUDu2rReZTHLkfpigt0uj2oubwA+wfXCrICqoYTnpFWnOrp3HV0qj1noVzJsYdTaJ/haAgoApNn8PV3xiyN+KBkUKVL79QxC5kcdIE26aB0DldyiKt4Ykpe4Bm89LkGV1zHt7XdoTseEmnsAzXJTLDOHkupIj7oMkRVFt8giYm1YlZ/vOPuEx2vV9LYh2B0ZRwu0hhjRVaXz3y0wgNmiE0Rt4RNnfhWdYR9yRGsVgbPgaO+lIimzzq6QMse1fQbYpfclp/+In5tMUyV8tNP4hiiJ4m8GKKjHCYSLsRRpiFJkYFz5Haqvy7QqfZcKuV4nQ2lCsSoQcM2DBse5qKBj2YUF2hjb2xP6SGwQ8xNg7svAs7inYwllIw1ZrycXuat6RD3idbRi8nWwWCLj5oZy2GmzWAL0Bl8xDiLBPuob8NGY66U0y7QKXed5oJYRnHkwsEv/TVorlxz+CntrXMr1NYD7jpaW1fauyIXaHvjo611LtDautLeFblA2xsfba1zgdbWlfauyAXa3vhoa50LtLautHdFLtD2xkdb61ygtXWlvStygbY3Ptpa5wKtrSvtXZELtL3x0dY6F2htXWnvilyg7Y2Ptta5QGvrSntX5AJtb3y0te7/AGgpqOKQGwuHAAAAAElFTkSuQmCC;labelPosition=center;align=center;fontSize=20;" parent="1" vertex="1">
                    <mxGeometry x="1320" y="190" width="91.5" height="90" as="geometry"/>
                </mxCell>
            </root>
        </mxGraphModel>
    </diagram>
    <diagram id="SlJSEloN3_Ld6IPHG9eN" name="Personas">
        <mxGraphModel dx="1004" dy="691" grid="1" gridSize="10" guides="1" tooltips="1" connect="1" arrows="1" fold="1" page="1" pageScale="1" pageWidth="827" pageHeight="1169" math="0" shadow="0">
            <root>
                <mxCell id="0"/>
                <mxCell id="1" parent="0"/>
                <mxCell id="sK2CJBM_I8XmhbTJnifk-4" value="DataZone Domain" style="fillColor=none;strokeColor=#5A6C86;dashed=1;verticalAlign=top;fontStyle=0;fontColor=#5A6C86;align=left;spacingLeft=45;" parent="1" vertex="1">
                    <mxGeometry x="220" y="140" width="670" height="580" as="geometry"/>
                </mxCell>
                <mxCell id="u9C5ozYIdNya8mqwUud--1" value="" style="shape=image;verticalLabelPosition=bottom;labelBackgroundColor=default;verticalAlign=top;aspect=fixed;imageAspect=0;image=data:image/png,iVBORw0KGgoAAAANSUhEUgAAAHgAAAB6CAYAAAB0rJfZAAAAAXNSR0IArs4c6QAAAIRlWElmTU0AKgAAAAgABQESAAMAAAABAAEAAAEaAAUAAAABAAAASgEbAAUAAAABAAAAUgEoAAMAAAABAAIAAIdpAAQAAAABAAAAWgAAAAAAAACQAAAAAQAAAJAAAAABAAOgAQADAAAAAQABAACgAgAEAAAAAQAAAHigAwAEAAAAAQAAAHoAAAAAYBrnGwAAAAlwSFlzAAAWJQAAFiUBSVIk8AAACxBJREFUeAHtnWnsXUUVwM+/LS1YqJTYAlWiLIYal8QNqMHUhFCMaVgiZYl8aPiAIS6JK9G4AC5xQb+4RT8YjBiUYkJIQ4JAYkMj4IIGMJSwadSWFtJioflDK63z4/b0zXu9d+5t3yzvzZ2TvP+9787ce+ac35u5d2bunL9Ikaw9MHPDBfv2ZW1hz42b03P7sze/AM4ccQFcAGfugczNKzW4AM7cA5mbV2pwAZy5BzI3r9TgAjhzD2RuXqnBBXDmHsjcvFKDC+DMPZC5eaUGF8CZeyBz80oNzhzwvMztO2De0pNFVn+++rr+OyLbnj6QlPVOL2owcC++XmTxidWHfY71QbIHrHCPOmaAk/2+QM4a8Cjc2RdE+CB9gZwt4Dq4t35FhE+fIGcJuAkuD1Z8+gQ5O8AuuFXj3C/IWQHuArdvkLMBfChw+wQ5C8CHA7cvkKce8Dhw+wB5qgH7gJs75KkGvOrj1YAFkOjb0v0ZZ4y5rguFjmmWiVw+eqwZM162XGThYpE9L4k8/4zIvx8R+d/uYVcvWipy6ddFjjhqfLj2lbVl2DMr8psviezcZqeKzJsv8oa3iRx7gtF9pMiuHSKbN5lybhnONwnfJgrwm94pcvYVIseferBr9rws8tCdIvffIvLSi4N0IC9YKPKs59mhJWYy4uVdw3CPPFrkrEtE3nGeAbtgUAbd2/qkyMabRP7xVz2SfjsRgGfMjWLlWpF3n9/ukJ3Pitz2Tf9A2zQD/MIviixa0pZT5C+3i2y4UWTf3va8oXNMBOAPXDkMl2aZWrBjc9X8nvRWkde9ceCK2Z0iv/qcyH+3Do6F3Hvt8SIf+a653y8aaHnunyL/+ru5hZhmfPEyEVofmmsVIP/+5/ot3Tb5hD+OsWvuYxtF7vmZeWgyEG057UyR8z4hQjOJoz/0aZGbr7FzhNtHl8Ll9nDnD0SeeGBYH+nnXCVy+tnVcWziR5q6uU7+FM09VwW46284GC7pOHSdeUrWB61lp4uc8l49M9wWHehC0E0ZRuGSxg+SsmODim2bHou9TQqYpk0fqGiW7/mp2/xtT4k8uH6QZ/n7B/uh9mwd6KYMLsEGbEGwDRtTSlLAJ+6vGTiApkznaV0OeXTDIFVr1uCI/z1bh627SRM22M2ybWPTOSGPJwVMP1eFB6ouYudbeFyXM8bLY+uwdbuuauc72rLRdU6otKQPWdqUYRyDFV1kvvWkOsf8PFdc2uWsw8+DDhV0z+7Rb81b25bd+5vr5txhU5ICZoRKha5QF2EESWXOXJH3Xa7fwm/R/fh97XpsW2wb28/0n8P6ffq/eNsVGX5khAqhn3vqGdV+018GRM78cFNq+OPopgwuwQbts2MbNqaUpDWYbgfDj9oP/uAnq25I3ZMqjj33avNkelrlLpz359vMaNG+sO6bmRF5z4XV0CS6KcNdP6kfpVp6StVX1xJhm3br9FjsbVLAGMvY8ptXVEOADGJc/q2qK8QT647/iMw392aaxjNM7TlhP1zO+8PNFWD2Q8vu2WooFT1vP1eEYcs//raqnaQtfr3IW1aKvGt1NRFBPoZUsS21TMRQJQ5bc91gtKjNKQ/fJfK7H7Xl8pu+6mMV3C5XZdBj3Vfjj5fXla3ljlJ3iv9jzAQxtrz5Mfe1aZY33BgfLqXiB4VufWbgWJ1gA7b4nt2q09Xl2NxVy6+9tktGn3mYb73oy2ZA4G/VlBzXZmrukbtFmHJD6JLMW1Dt64MNzeIDt1bHUvxlznfuESInmVsGsvcVkVfM54XnRJ5+sJoqvPcXA5vIw3TmmutFnnnczBs/z5G4Mi+uumrRF+uCWDrCZP3ohPpTfxLho7LiMtMVMh8k9ANVpcX9154CvH+dyH2/bs5/zBKRS74mwmwUNo/7xkmzpuaUqE20vimhC8EYEGCyPlfhoXH+ayrrUq2FigZ4FK6+Q9V6rwrcDQr548K21MtkogBugjvOC3Ihwfi8dt2LfDGXrgYH3Ge4+kNJCTko4AJXEadb8BYMcIE7gKt7KWpyEMAFriI9eBsbsnfABe7BUEePxITsFXCBO4qy+XssyN4AB4M70+ykaU+JAdkbYIKM6QiVDmJgQBG3B+oga8A295ndUr0B7qYug1xT1qJ4A0x4QH3tNdW4a5Sfj+eh07pbG770Jd4A1zU1XobkPDvUl+N8XKcOru8ZJ2+AMTgYZB/enLBrxICLyV4Bc8ECGS+4JRZcSuEdMBctkPFCvcSESwmCAObCBTJeGJbYcNEeDDAXL5DxQiUp4KI5KGAUFMjD76Hhk5gDQcEB9x1yqpqL35EogFHUVJN56d0pUzZyZNuCbfoGKcdj1lwtRzTAKByFTAAT3od2yhQPdGAbNiIp4KI3+nvRCpkIcrd/ezgOFQUiJsZyE8jk1UBoZoG3vT6XhWCpRV/CpxxnranWTO3aXgVC27Rx+J1uAqjx3vf515iVET+sfuCxyz8Ra5MwmpfDiWZjh0wYdQbLRmIuOhvVzypD1iPXBUHTvCxdueP78UI8qd6mbdQmuqkQ3KuIQ+WCy7k4duVaERaCxRZ0otsFlzJhA7a0PltEMiB6Ez1qF2//E0FO41CxnpZoNq8uHzVxO1ijxPJRFl/r2mCWcG43S0tZHxxDqLnoVNn6hFkjpctHTYgGIunYy0exBZt++anhsIt6fsxt8ibajnJHkDHiULkWgKujDywA3xvWXdxzdQE4mh6+2ywA/3HzAnAWmvGjRSYh2l3SGkzUVgJ7qhBBrg4u6Sz6YmU9/UpqMk1l6AAsWi7dUnOb4JKHsmPDBV+ozsA2gpOmXOWf9B5M06v3NGI/1kWQU+eyBTJNYypBt726sK4c2IAtCLZhY0pJWoOJt6xCYM8uYgc1YX0uSzhDCl0hovkgtu7qSP1fbNFALLaN9bnDHk0K2I7OqgMCbebacaf2mhrtWp/bdq0u6cQGUcC2bte5ti12XC/XOaHSkjbRREpX6RrT0c7HAENosXXYul167XwvWja6zgmVlhTwFjMooEJYYX3tVo/VbemOqLTF9NB842xtHbbupmtiA7ao2DbqsZjbpICJ6agxOWiuz/mo23TiUBGqSGXTvboXbmvrQDdlcAk26K0H2+y4la7zQqUlBYxRdCNUCKa9+rP1NZkIchdfN4hDRc2yY3noNXxv0aG1mG4dZaiLyEfNpewaEJxy2Lb5LlfX6yUf6KCg9mAH3zWk/3ZGskwcj0kO6U8gtOPMSNakhvSfCMCMFq1cOwhpCOQmKf+Uo8kz9ccnArAWjVpwqP9Wh1BFDA22BnNRJR23TBYwn2v/zyT0lH+r09GBrmx0M4iUTjBt+p5N/xgLuJd9wzzUmGbc54oAfc2G/uxoHC/Kbf9jLPq5dIV4Wk79QFXn04mqwXUFdB274nvV/0Ugj683JhSudtl4Er7pM65STHZa8qfocdzDWxKARQAy7lqoUbhcGx3TLFMNWF//8QG5Dq7PZj/Vj2SqAeM0H5BzhYt/ph7wuJBzhpsN4MOFnDvcrAAfKuQ+wM0OcFfIfYGbJeA2yH2Ciy+meqADA1xSB5P8Oojha3DEVYbUaVk8RTc5sa4L1Se4+CVrwBg4Cpljfai52IlkDxgjFfKOLWZCwHxyGKHCri6S9T24iwNyz9OLGpw7RJd9BbDLOxmkFcAZQHSZUAC7vJNBWgGcAUSXCQWwyzsZpBXAGUB0mVAAu7yTQVoBnAFElwkFsMs7GaQVwBlAdJlQALu8k0FaAZwBRJcJBbDLOxmkFcAZQHSZUAC7vJNBWgGcAcRiQo898H+Qp3IKe6mzpAAAAABJRU5ErkJggg==;fontSize=16;" parent="1" vertex="1">
                    <mxGeometry x="220" y="140" width="39.34" height="40" as="geometry"/>
                </mxCell>
                <mxCell id="G4eRb-dAC2T_tff-NSXR-4" value="DataZone Project" style="fillColor=none;strokeColor=#5A6C86;dashed=1;verticalAlign=top;fontStyle=0;fontColor=#5A6C86;" parent="1" vertex="1">
                    <mxGeometry x="250" y="300" width="300" height="360" as="geometry"/>
                </mxCell>
                <mxCell id="G4eRb-dAC2T_tff-NSXR-6" style="edgeStyle=orthogonalEdgeStyle;html=1;entryX=0.5;entryY=0;entryDx=0;entryDy=0;" parent="1" source="VecMVjsl5eeuQG7eI2RQ-1" target="sK2CJBM_I8XmhbTJnifk-4" edge="1">
                    <mxGeometry relative="1" as="geometry">
                        <mxPoint x="130" y="30.066666666666606" as="sourcePoint"/>
                    </mxGeometry>
                </mxCell>
                <mxCell id="G4eRb-dAC2T_tff-NSXR-7" value="Manage Domains" style="edgeLabel;html=1;align=center;verticalAlign=middle;resizable=0;points=[];" parent="G4eRb-dAC2T_tff-NSXR-6" vertex="1" connectable="0">
                    <mxGeometry x="-0.236" relative="1" as="geometry">
                        <mxPoint as="offset"/>
                    </mxGeometry>
                </mxCell>
                <mxCell id="hfZgqvR3pPBk4_PCj9gG-1" value="&lt;font style=&quot;font-size: 11px;&quot;&gt;Environment Blueprints&lt;/font&gt;" style="sketch=0;pointerEvents=1;shadow=0;dashed=0;html=1;strokeColor=none;fillColor=#434445;aspect=fixed;labelPosition=center;verticalLabelPosition=top;verticalAlign=bottom;align=center;outlineConnect=0;shape=mxgraph.vvd.blueprint;fontSize=16;" parent="1" vertex="1">
                    <mxGeometry x="450" y="180" width="50" height="47.5" as="geometry"/>
                </mxCell>
                <mxCell id="hfZgqvR3pPBk4_PCj9gG-4" style="edgeStyle=orthogonalEdgeStyle;html=1;fontSize=11;" parent="1" source="hfZgqvR3pPBk4_PCj9gG-3" target="hfZgqvR3pPBk4_PCj9gG-1" edge="1">
                    <mxGeometry relative="1" as="geometry"/>
                </mxCell>
                <mxCell id="hfZgqvR3pPBk4_PCj9gG-18" value="Customize" style="edgeLabel;html=1;align=center;verticalAlign=middle;resizable=0;points=[];fontSize=11;" parent="hfZgqvR3pPBk4_PCj9gG-4" vertex="1" connectable="0">
                    <mxGeometry x="0.3796" y="-2" relative="1" as="geometry">
                        <mxPoint y="1" as="offset"/>
                    </mxGeometry>
                </mxCell>
                <mxCell id="hfZgqvR3pPBk4_PCj9gG-3" value="&lt;font style=&quot;font-size: 11px;&quot;&gt;Environment Profiles&lt;/font&gt;" style="sketch=0;pointerEvents=1;shadow=0;dashed=0;html=1;strokeColor=none;fillColor=#434445;aspect=fixed;labelPosition=center;verticalLabelPosition=top;verticalAlign=bottom;align=center;outlineConnect=0;shape=mxgraph.vvd.blueprint;fontSize=16;" parent="1" vertex="1">
                    <mxGeometry x="450" y="350" width="50" height="47.5" as="geometry"/>
                </mxCell>
                <mxCell id="hfZgqvR3pPBk4_PCj9gG-6" style="edgeStyle=orthogonalEdgeStyle;html=1;fontSize=11;" parent="1" source="hfZgqvR3pPBk4_PCj9gG-5" target="hfZgqvR3pPBk4_PCj9gG-3" edge="1">
                    <mxGeometry relative="1" as="geometry"/>
                </mxCell>
                <mxCell id="hfZgqvR3pPBk4_PCj9gG-19" value="Instantiate/Deploy" style="edgeLabel;html=1;align=center;verticalAlign=middle;resizable=0;points=[];fontSize=11;" parent="hfZgqvR3pPBk4_PCj9gG-6" vertex="1" connectable="0">
                    <mxGeometry x="-0.2471" y="-1" relative="1" as="geometry">
                        <mxPoint as="offset"/>
                    </mxGeometry>
                </mxCell>
                <mxCell id="hfZgqvR3pPBk4_PCj9gG-5" value="&lt;font style=&quot;font-size: 11px;&quot;&gt;Environment&lt;/font&gt;" style="sketch=0;pointerEvents=1;shadow=0;dashed=0;html=1;strokeColor=none;fillColor=#434445;aspect=fixed;labelPosition=center;verticalLabelPosition=bottom;verticalAlign=top;align=center;outlineConnect=0;shape=mxgraph.vvd.blueprint;fontSize=16;" parent="1" vertex="1">
                    <mxGeometry x="450" y="482.5" width="50" height="47.5" as="geometry"/>
                </mxCell>
                <mxCell id="hfZgqvR3pPBk4_PCj9gG-7" value="DataZone Project" style="fillColor=none;strokeColor=#5A6C86;dashed=1;verticalAlign=top;fontStyle=0;fontColor=#5A6C86;" parent="1" vertex="1">
                    <mxGeometry x="580" y="300" width="280" height="360" as="geometry"/>
                </mxCell>
                <mxCell id="hfZgqvR3pPBk4_PCj9gG-9" style="edgeStyle=orthogonalEdgeStyle;html=1;fontSize=11;" parent="1" source="hfZgqvR3pPBk4_PCj9gG-8" target="hfZgqvR3pPBk4_PCj9gG-3" edge="1">
                    <mxGeometry relative="1" as="geometry"/>
                </mxCell>
                <mxCell id="hfZgqvR3pPBk4_PCj9gG-8" value="&lt;font style=&quot;font-size: 11px;&quot;&gt;Environment&lt;/font&gt;" style="sketch=0;pointerEvents=1;shadow=0;dashed=0;html=1;strokeColor=none;fillColor=#434445;aspect=fixed;labelPosition=center;verticalLabelPosition=top;verticalAlign=bottom;align=center;outlineConnect=0;shape=mxgraph.vvd.blueprint;fontSize=16;" parent="1" vertex="1">
                    <mxGeometry x="620" y="350" width="50" height="47.5" as="geometry"/>
                </mxCell>
                <mxCell id="hfZgqvR3pPBk4_PCj9gG-14" style="edgeStyle=orthogonalEdgeStyle;html=1;fontSize=11;" parent="1" source="hfZgqvR3pPBk4_PCj9gG-11" target="hfZgqvR3pPBk4_PCj9gG-12" edge="1">
                    <mxGeometry relative="1" as="geometry"/>
                </mxCell>
                <mxCell id="hfZgqvR3pPBk4_PCj9gG-17" value="Uses" style="edgeLabel;html=1;align=center;verticalAlign=middle;resizable=0;points=[];fontSize=11;" parent="hfZgqvR3pPBk4_PCj9gG-14" vertex="1" connectable="0">
                    <mxGeometry x="-0.2325" y="-3" relative="1" as="geometry">
                        <mxPoint as="offset"/>
                    </mxGeometry>
                </mxCell>
                <mxCell id="hfZgqvR3pPBk4_PCj9gG-11" value="Assets" style="sketch=0;outlineConnect=0;fontColor=#232F3E;gradientColor=none;fillColor=#232F3D;strokeColor=none;dashed=0;verticalLabelPosition=bottom;verticalAlign=top;align=center;html=1;fontSize=12;fontStyle=0;aspect=fixed;pointerEvents=1;shape=mxgraph.aws4.documents;" parent="1" vertex="1">
                    <mxGeometry x="299.06" y="350" width="37.13" height="45.25" as="geometry"/>
                </mxCell>
                <mxCell id="hfZgqvR3pPBk4_PCj9gG-12" value="Glossary" style="sketch=0;outlineConnect=0;fontColor=#232F3E;gradientColor=none;fillColor=#3F8624;strokeColor=none;dashed=0;verticalLabelPosition=bottom;verticalAlign=top;align=center;html=1;fontSize=12;fontStyle=0;aspect=fixed;pointerEvents=1;shape=mxgraph.aws4.iot_sitewise_asset_hierarchy;" parent="1" vertex="1">
                    <mxGeometry x="290" y="560" width="55.25" height="55.25" as="geometry"/>
                </mxCell>
                <mxCell id="hfZgqvR3pPBk4_PCj9gG-15" style="edgeStyle=orthogonalEdgeStyle;html=1;fontSize=11;" parent="1" source="hfZgqvR3pPBk4_PCj9gG-13" target="hfZgqvR3pPBk4_PCj9gG-12" edge="1">
                    <mxGeometry relative="1" as="geometry">
                        <Array as="points">
                            <mxPoint x="799" y="590"/>
                        </Array>
                    </mxGeometry>
                </mxCell>
                <mxCell id="hfZgqvR3pPBk4_PCj9gG-16" value="Uses" style="edgeLabel;html=1;align=center;verticalAlign=middle;resizable=0;points=[];fontSize=11;" parent="hfZgqvR3pPBk4_PCj9gG-15" vertex="1" connectable="0">
                    <mxGeometry x="-0.0431" relative="1" as="geometry">
                        <mxPoint y="1" as="offset"/>
                    </mxGeometry>
                </mxCell>
                <mxCell id="hfZgqvR3pPBk4_PCj9gG-13" value="Assets" style="sketch=0;outlineConnect=0;fontColor=#232F3E;gradientColor=none;fillColor=#232F3D;strokeColor=none;dashed=0;verticalLabelPosition=bottom;verticalAlign=top;align=center;html=1;fontSize=12;fontStyle=0;aspect=fixed;pointerEvents=1;shape=mxgraph.aws4.documents;" parent="1" vertex="1">
                    <mxGeometry x="780" y="344.75" width="37.13" height="45.25" as="geometry"/>
                </mxCell>
                <mxCell id="hfZgqvR3pPBk4_PCj9gG-24" style="edgeStyle=orthogonalEdgeStyle;html=1;fontSize=11;" parent="1" source="hfZgqvR3pPBk4_PCj9gG-21" target="G4eRb-dAC2T_tff-NSXR-4" edge="1">
                    <mxGeometry relative="1" as="geometry"/>
                </mxCell>
                <mxCell id="hfZgqvR3pPBk4_PCj9gG-30" value="Manage" style="edgeLabel;html=1;align=center;verticalAlign=middle;resizable=0;points=[];fontSize=11;" parent="hfZgqvR3pPBk4_PCj9gG-24" vertex="1" connectable="0">
                    <mxGeometry x="-0.2713" y="-2" relative="1" as="geometry">
                        <mxPoint x="1" as="offset"/>
                    </mxGeometry>
                </mxCell>
                <mxCell id="hfZgqvR3pPBk4_PCj9gG-21" value="Project Owner&lt;br&gt;(SSO/IAM)" style="sketch=0;outlineConnect=0;fontColor=#232F3E;gradientColor=none;fillColor=#232F3D;strokeColor=none;dashed=0;verticalLabelPosition=bottom;verticalAlign=top;align=center;html=1;fontSize=12;fontStyle=0;aspect=fixed;pointerEvents=1;shape=mxgraph.aws4.user;" parent="1" vertex="1">
                    <mxGeometry x="99.87" y="240" width="52.5" height="52.5" as="geometry"/>
                </mxCell>
                <mxCell id="hfZgqvR3pPBk4_PCj9gG-33" style="edgeStyle=orthogonalEdgeStyle;html=1;entryX=-0.002;entryY=0.808;entryDx=0;entryDy=0;entryPerimeter=0;fontSize=11;" parent="1" source="hfZgqvR3pPBk4_PCj9gG-22" target="G4eRb-dAC2T_tff-NSXR-4" edge="1">
                    <mxGeometry relative="1" as="geometry"/>
                </mxCell>
                <mxCell id="hfZgqvR3pPBk4_PCj9gG-34" value="See" style="edgeLabel;html=1;align=center;verticalAlign=middle;resizable=0;points=[];fontSize=11;" parent="hfZgqvR3pPBk4_PCj9gG-33" vertex="1" connectable="0">
                    <mxGeometry x="-0.1401" relative="1" as="geometry">
                        <mxPoint as="offset"/>
                    </mxGeometry>
                </mxCell>
                <mxCell id="hfZgqvR3pPBk4_PCj9gG-35" style="edgeStyle=orthogonalEdgeStyle;html=1;entryX=0.5;entryY=1;entryDx=0;entryDy=0;fontSize=11;" parent="1" source="hfZgqvR3pPBk4_PCj9gG-22" target="hfZgqvR3pPBk4_PCj9gG-7" edge="1">
                    <mxGeometry relative="1" as="geometry">
                        <Array as="points">
                            <mxPoint x="127" y="750"/>
                            <mxPoint x="720" y="750"/>
                        </Array>
                    </mxGeometry>
                </mxCell>
                <mxCell id="hfZgqvR3pPBk4_PCj9gG-36" value="See" style="edgeLabel;html=1;align=center;verticalAlign=middle;resizable=0;points=[];fontSize=11;" parent="hfZgqvR3pPBk4_PCj9gG-35" vertex="1" connectable="0">
                    <mxGeometry x="-0.1281" y="-2" relative="1" as="geometry">
                        <mxPoint as="offset"/>
                    </mxGeometry>
                </mxCell>
                <mxCell id="hfZgqvR3pPBk4_PCj9gG-22" value="User/Subscriber&lt;br&gt;(SSO/IAM)" style="sketch=0;outlineConnect=0;fontColor=#232F3E;gradientColor=none;fillColor=#232F3D;strokeColor=none;dashed=0;verticalLabelPosition=bottom;verticalAlign=top;align=center;html=1;fontSize=12;fontStyle=0;aspect=fixed;pointerEvents=1;shape=mxgraph.aws4.user;" parent="1" vertex="1">
                    <mxGeometry x="104.75" y="565.25" width="50" height="50" as="geometry"/>
                </mxCell>
                <mxCell id="ZypFT5AEg7bCrrSc6gmy-1" style="edgeStyle=orthogonalEdgeStyle;html=1;entryX=0;entryY=0.25;entryDx=0;entryDy=0;fontSize=20;" parent="1" source="hfZgqvR3pPBk4_PCj9gG-23" target="G4eRb-dAC2T_tff-NSXR-4" edge="1">
                    <mxGeometry relative="1" as="geometry"/>
                </mxCell>
                <mxCell id="ZypFT5AEg7bCrrSc6gmy-2" value="&lt;span style=&quot;font-size: 11px;&quot;&gt;Manage&lt;/span&gt;" style="edgeLabel;html=1;align=center;verticalAlign=middle;resizable=0;points=[];fontSize=20;" parent="ZypFT5AEg7bCrrSc6gmy-1" vertex="1" connectable="0">
                    <mxGeometry x="-0.5298" y="-3" relative="1" as="geometry">
                        <mxPoint x="15" y="-3" as="offset"/>
                    </mxGeometry>
                </mxCell>
                <mxCell id="hfZgqvR3pPBk4_PCj9gG-23" value="Project Contributor&lt;br&gt;(SSO/IAM)" style="sketch=0;outlineConnect=0;fontColor=#232F3E;gradientColor=none;fillColor=#232F3D;strokeColor=none;dashed=0;verticalLabelPosition=bottom;verticalAlign=top;align=center;html=1;fontSize=12;fontStyle=0;aspect=fixed;pointerEvents=1;shape=mxgraph.aws4.user;" parent="1" vertex="1">
                    <mxGeometry x="100" y="363" width="54.75" height="54.75" as="geometry"/>
                </mxCell>
                <mxCell id="hfZgqvR3pPBk4_PCj9gG-28" style="edgeStyle=orthogonalEdgeStyle;html=1;entryX=0.5;entryY=0;entryDx=0;entryDy=0;fontSize=11;" parent="1" source="hfZgqvR3pPBk4_PCj9gG-27" target="hfZgqvR3pPBk4_PCj9gG-7" edge="1">
                    <mxGeometry relative="1" as="geometry"/>
                </mxCell>
                <mxCell id="hfZgqvR3pPBk4_PCj9gG-31" value="Manage" style="edgeLabel;html=1;align=center;verticalAlign=middle;resizable=0;points=[];fontSize=11;" parent="hfZgqvR3pPBk4_PCj9gG-28" vertex="1" connectable="0">
                    <mxGeometry x="0.0009" y="-3" relative="1" as="geometry">
                        <mxPoint x="-1" as="offset"/>
                    </mxGeometry>
                </mxCell>
                <mxCell id="hfZgqvR3pPBk4_PCj9gG-27" value="Project Owner&lt;br&gt;(SSO/IAM)" style="sketch=0;outlineConnect=0;fontColor=#232F3E;gradientColor=none;fillColor=#232F3D;strokeColor=none;dashed=0;verticalLabelPosition=bottom;verticalAlign=top;align=center;html=1;fontSize=12;fontStyle=0;aspect=fixed;pointerEvents=1;shape=mxgraph.aws4.user;" parent="1" vertex="1">
                    <mxGeometry x="1020" y="240" width="52.5" height="52.5" as="geometry"/>
                </mxCell>
                <mxCell id="VecMVjsl5eeuQG7eI2RQ-1" value="DataZone Admin" style="sketch=0;outlineConnect=0;fontColor=#232F3E;gradientColor=none;fillColor=#232F3D;strokeColor=none;dashed=0;verticalLabelPosition=bottom;verticalAlign=top;align=center;html=1;fontSize=12;fontStyle=0;aspect=fixed;pointerEvents=1;shape=mxgraph.aws4.user;" parent="1" vertex="1">
                    <mxGeometry x="99.87" y="10" width="52.5" height="52.5" as="geometry"/>
                </mxCell>
            </root>
        </mxGraphModel>
    </diagram>
    <diagram id="B5Ik9SfMTn0KcyQ1CGlK" name="Personas-Table">
        <mxGraphModel dx="1751" dy="951" grid="1" gridSize="10" guides="1" tooltips="1" connect="1" arrows="1" fold="1" page="1" pageScale="1" pageWidth="827" pageHeight="1169" math="0" shadow="0">
            <root>
                <mxCell id="0"/>
                <mxCell id="1" parent="0"/>
                <mxCell id="z07SwynEIZwoAent_hTL-1" value="" style="shape=table;startSize=0;container=1;collapsible=0;childLayout=tableLayout;fontSize=11;" vertex="1" parent="1">
                    <mxGeometry x="-30" y="860" width="1140" height="370" as="geometry"/>
                </mxCell>
                <mxCell id="z07SwynEIZwoAent_hTL-2" value="" style="shape=tableRow;horizontal=0;startSize=0;swimlaneHead=0;swimlaneBody=0;top=0;left=0;bottom=0;right=0;collapsible=0;dropTarget=0;fillColor=none;points=[[0,0.5],[1,0.5]];portConstraint=eastwest;fontSize=11;" vertex="1" parent="z07SwynEIZwoAent_hTL-1">
                    <mxGeometry width="1140" height="42" as="geometry"/>
                </mxCell>
                <mxCell id="z07SwynEIZwoAent_hTL-3" value="" style="shape=partialRectangle;html=1;whiteSpace=wrap;connectable=0;overflow=hidden;fillColor=none;top=0;left=0;bottom=0;right=0;pointerEvents=1;fontSize=11;" vertex="1" parent="z07SwynEIZwoAent_hTL-2">
                    <mxGeometry width="140" height="42" as="geometry">
                        <mxRectangle width="140" height="42" as="alternateBounds"/>
                    </mxGeometry>
                </mxCell>
                <mxCell id="z07SwynEIZwoAent_hTL-4" value="Domain" style="shape=partialRectangle;html=1;whiteSpace=wrap;connectable=0;overflow=hidden;fillColor=none;top=0;left=0;bottom=0;right=0;pointerEvents=1;fontSize=11;fontStyle=1" vertex="1" parent="z07SwynEIZwoAent_hTL-2">
                    <mxGeometry x="140" width="160" height="42" as="geometry">
                        <mxRectangle width="160" height="42" as="alternateBounds"/>
                    </mxGeometry>
                </mxCell>
                <mxCell id="z07SwynEIZwoAent_hTL-5" value="Environment Profile" style="shape=partialRectangle;html=1;whiteSpace=wrap;connectable=0;overflow=hidden;fillColor=none;top=0;left=0;bottom=0;right=0;pointerEvents=1;fontSize=11;fontStyle=1" vertex="1" parent="z07SwynEIZwoAent_hTL-2">
                    <mxGeometry x="300" width="140" height="42" as="geometry">
                        <mxRectangle width="140" height="42" as="alternateBounds"/>
                    </mxGeometry>
                </mxCell>
                <mxCell id="z07SwynEIZwoAent_hTL-6" value="Environment" style="shape=partialRectangle;html=1;whiteSpace=wrap;connectable=0;overflow=hidden;fillColor=none;top=0;left=0;bottom=0;right=0;pointerEvents=1;fontSize=11;fontStyle=1" vertex="1" parent="z07SwynEIZwoAent_hTL-2">
                    <mxGeometry x="440" width="170" height="42" as="geometry">
                        <mxRectangle width="170" height="42" as="alternateBounds"/>
                    </mxGeometry>
                </mxCell>
                <mxCell id="z07SwynEIZwoAent_hTL-7" value="Project" style="shape=partialRectangle;html=1;whiteSpace=wrap;connectable=0;overflow=hidden;fillColor=none;top=0;left=0;bottom=0;right=0;pointerEvents=1;fontSize=11;fontStyle=1" vertex="1" parent="z07SwynEIZwoAent_hTL-2">
                    <mxGeometry x="610" width="180" height="42" as="geometry">
                        <mxRectangle width="180" height="42" as="alternateBounds"/>
                    </mxGeometry>
                </mxCell>
                <mxCell id="z07SwynEIZwoAent_hTL-8" value="Glossary" style="shape=partialRectangle;html=1;whiteSpace=wrap;connectable=0;overflow=hidden;fillColor=none;top=0;left=0;bottom=0;right=0;pointerEvents=1;fontSize=11;fontStyle=1" vertex="1" parent="z07SwynEIZwoAent_hTL-2">
                    <mxGeometry x="790" width="150" height="42" as="geometry">
                        <mxRectangle width="150" height="42" as="alternateBounds"/>
                    </mxGeometry>
                </mxCell>
                <mxCell id="z07SwynEIZwoAent_hTL-9" value="Assets" style="shape=partialRectangle;html=1;whiteSpace=wrap;connectable=0;overflow=hidden;fillColor=none;top=0;left=0;bottom=0;right=0;pointerEvents=1;fontSize=11;fontStyle=1" vertex="1" parent="z07SwynEIZwoAent_hTL-2">
                    <mxGeometry x="940" width="200" height="42" as="geometry">
                        <mxRectangle width="200" height="42" as="alternateBounds"/>
                    </mxGeometry>
                </mxCell>
                <mxCell id="z07SwynEIZwoAent_hTL-10" value="" style="shape=tableRow;horizontal=0;startSize=0;swimlaneHead=0;swimlaneBody=0;top=0;left=0;bottom=0;right=0;collapsible=0;dropTarget=0;fillColor=none;points=[[0,0.5],[1,0.5]];portConstraint=eastwest;fontSize=11;" vertex="1" parent="z07SwynEIZwoAent_hTL-1">
                    <mxGeometry y="42" width="1140" height="43" as="geometry"/>
                </mxCell>
                <mxCell id="z07SwynEIZwoAent_hTL-11" value="DataZone Admin" style="shape=partialRectangle;html=1;whiteSpace=wrap;connectable=0;overflow=hidden;fillColor=none;top=0;left=0;bottom=0;right=0;pointerEvents=1;fontSize=11;fontStyle=1" vertex="1" parent="z07SwynEIZwoAent_hTL-10">
                    <mxGeometry width="140" height="43" as="geometry">
                        <mxRectangle width="140" height="43" as="alternateBounds"/>
                    </mxGeometry>
                </mxCell>
                <mxCell id="z07SwynEIZwoAent_hTL-12" value="All" style="shape=partialRectangle;html=1;whiteSpace=wrap;connectable=0;overflow=hidden;fillColor=none;top=0;left=0;bottom=0;right=0;pointerEvents=1;fontSize=11;" vertex="1" parent="z07SwynEIZwoAent_hTL-10">
                    <mxGeometry x="140" width="160" height="43" as="geometry">
                        <mxRectangle width="160" height="43" as="alternateBounds"/>
                    </mxGeometry>
                </mxCell>
                <mxCell id="z07SwynEIZwoAent_hTL-13" value="All" style="shape=partialRectangle;html=1;whiteSpace=wrap;connectable=0;overflow=hidden;fillColor=none;top=0;left=0;bottom=0;right=0;pointerEvents=1;fontSize=11;" vertex="1" parent="z07SwynEIZwoAent_hTL-10">
                    <mxGeometry x="300" width="140" height="43" as="geometry">
                        <mxRectangle width="140" height="43" as="alternateBounds"/>
                    </mxGeometry>
                </mxCell>
                <mxCell id="z07SwynEIZwoAent_hTL-14" value="All" style="shape=partialRectangle;html=1;whiteSpace=wrap;connectable=0;overflow=hidden;fillColor=none;top=0;left=0;bottom=0;right=0;pointerEvents=1;fontSize=11;" vertex="1" parent="z07SwynEIZwoAent_hTL-10">
                    <mxGeometry x="440" width="170" height="43" as="geometry">
                        <mxRectangle width="170" height="43" as="alternateBounds"/>
                    </mxGeometry>
                </mxCell>
                <mxCell id="z07SwynEIZwoAent_hTL-15" value="All" style="shape=partialRectangle;html=1;whiteSpace=wrap;connectable=0;overflow=hidden;fillColor=none;top=0;left=0;bottom=0;right=0;pointerEvents=1;fontSize=11;" vertex="1" parent="z07SwynEIZwoAent_hTL-10">
                    <mxGeometry x="610" width="180" height="43" as="geometry">
                        <mxRectangle width="180" height="43" as="alternateBounds"/>
                    </mxGeometry>
                </mxCell>
                <mxCell id="z07SwynEIZwoAent_hTL-16" value="All" style="shape=partialRectangle;html=1;whiteSpace=wrap;connectable=0;overflow=hidden;fillColor=none;top=0;left=0;bottom=0;right=0;pointerEvents=1;fontSize=11;" vertex="1" parent="z07SwynEIZwoAent_hTL-10">
                    <mxGeometry x="790" width="150" height="43" as="geometry">
                        <mxRectangle width="150" height="43" as="alternateBounds"/>
                    </mxGeometry>
                </mxCell>
                <mxCell id="z07SwynEIZwoAent_hTL-17" value="All" style="shape=partialRectangle;html=1;whiteSpace=wrap;connectable=0;overflow=hidden;fillColor=none;top=0;left=0;bottom=0;right=0;pointerEvents=1;fontSize=11;" vertex="1" parent="z07SwynEIZwoAent_hTL-10">
                    <mxGeometry x="940" width="200" height="43" as="geometry">
                        <mxRectangle width="200" height="43" as="alternateBounds"/>
                    </mxGeometry>
                </mxCell>
                <mxCell id="z07SwynEIZwoAent_hTL-18" value="" style="shape=tableRow;horizontal=0;startSize=0;swimlaneHead=0;swimlaneBody=0;top=0;left=0;bottom=0;right=0;collapsible=0;dropTarget=0;fillColor=none;points=[[0,0.5],[1,0.5]];portConstraint=eastwest;fontSize=11;" vertex="1" parent="z07SwynEIZwoAent_hTL-1">
                    <mxGeometry y="85" width="1140" height="116" as="geometry"/>
                </mxCell>
                <mxCell id="z07SwynEIZwoAent_hTL-19" value="Project Owner" style="shape=partialRectangle;html=1;whiteSpace=wrap;connectable=0;overflow=hidden;fillColor=none;top=0;left=0;bottom=0;right=0;pointerEvents=1;fontSize=11;fontStyle=1" vertex="1" parent="z07SwynEIZwoAent_hTL-18">
                    <mxGeometry width="140" height="116" as="geometry">
                        <mxRectangle width="140" height="116" as="alternateBounds"/>
                    </mxGeometry>
                </mxCell>
                <mxCell id="z07SwynEIZwoAent_hTL-20" value="Can Access Authorized Domains" style="shape=partialRectangle;html=1;whiteSpace=wrap;connectable=0;overflow=hidden;fillColor=none;top=0;left=0;bottom=0;right=0;pointerEvents=1;fontSize=11;" vertex="1" parent="z07SwynEIZwoAent_hTL-18">
                    <mxGeometry x="140" width="160" height="116" as="geometry">
                        <mxRectangle width="160" height="116" as="alternateBounds"/>
                    </mxGeometry>
                </mxCell>
                <mxCell id="z07SwynEIZwoAent_hTL-21" value="Can Create" style="shape=partialRectangle;html=1;whiteSpace=wrap;connectable=0;overflow=hidden;fillColor=none;top=0;left=0;bottom=0;right=0;pointerEvents=1;fontSize=11;" vertex="1" parent="z07SwynEIZwoAent_hTL-18">
                    <mxGeometry x="300" width="140" height="116" as="geometry">
                        <mxRectangle width="140" height="116" as="alternateBounds"/>
                    </mxGeometry>
                </mxCell>
                <mxCell id="z07SwynEIZwoAent_hTL-22" value="Can Create" style="shape=partialRectangle;html=1;whiteSpace=wrap;connectable=0;overflow=hidden;fillColor=none;top=0;left=0;bottom=0;right=0;pointerEvents=1;fontSize=11;" vertex="1" parent="z07SwynEIZwoAent_hTL-18">
                    <mxGeometry x="440" width="170" height="116" as="geometry">
                        <mxRectangle width="170" height="116" as="alternateBounds"/>
                    </mxGeometry>
                </mxCell>
                <mxCell id="z07SwynEIZwoAent_hTL-23" value="Can see projects&lt;br&gt;Can create projects&lt;br&gt;Can delete owned projects" style="shape=partialRectangle;html=1;whiteSpace=wrap;connectable=0;overflow=hidden;fillColor=none;top=0;left=0;bottom=0;right=0;pointerEvents=1;fontSize=11;" vertex="1" parent="z07SwynEIZwoAent_hTL-18">
                    <mxGeometry x="610" width="180" height="116" as="geometry">
                        <mxRectangle width="180" height="116" as="alternateBounds"/>
                    </mxGeometry>
                </mxCell>
                <mxCell id="z07SwynEIZwoAent_hTL-24" value="Can create Glossary&lt;br&gt;Can use other project Glossary" style="shape=partialRectangle;html=1;whiteSpace=wrap;connectable=0;overflow=hidden;fillColor=none;top=0;left=0;bottom=0;right=0;pointerEvents=1;fontSize=11;rowspan=2;colspan=1;" vertex="1" parent="z07SwynEIZwoAent_hTL-18">
                    <mxGeometry x="790" width="150" height="243" as="geometry">
                        <mxRectangle width="150" height="116" as="alternateBounds"/>
                    </mxGeometry>
                </mxCell>
                <mxCell id="z07SwynEIZwoAent_hTL-25" value="Can publish&lt;br&gt;Can unpublish&lt;br&gt;Can add data sources&lt;br&gt;Can delete owned assets&lt;br&gt;Can edit owned assets&lt;br&gt;Can approve/disapprove subscriptions&lt;br&gt;Can subscribe to other projects' assets" style="shape=partialRectangle;html=1;whiteSpace=wrap;connectable=0;overflow=hidden;fillColor=none;top=0;left=0;bottom=0;right=0;pointerEvents=1;fontSize=11;" vertex="1" parent="z07SwynEIZwoAent_hTL-18">
                    <mxGeometry x="940" width="200" height="116" as="geometry">
                        <mxRectangle width="200" height="116" as="alternateBounds"/>
                    </mxGeometry>
                </mxCell>
                <mxCell id="z07SwynEIZwoAent_hTL-26" value="" style="shape=tableRow;horizontal=0;startSize=0;swimlaneHead=0;swimlaneBody=0;top=0;left=0;bottom=0;right=0;collapsible=0;dropTarget=0;fillColor=none;points=[[0,0.5],[1,0.5]];portConstraint=eastwest;fontSize=11;" vertex="1" parent="z07SwynEIZwoAent_hTL-1">
                    <mxGeometry y="201" width="1140" height="127" as="geometry"/>
                </mxCell>
                <mxCell id="z07SwynEIZwoAent_hTL-27" value="Project Contributor" style="shape=partialRectangle;html=1;whiteSpace=wrap;connectable=0;overflow=hidden;fillColor=none;top=0;left=0;bottom=0;right=0;pointerEvents=1;fontSize=11;fontStyle=1" vertex="1" parent="z07SwynEIZwoAent_hTL-26">
                    <mxGeometry width="140" height="127" as="geometry">
                        <mxRectangle width="140" height="127" as="alternateBounds"/>
                    </mxGeometry>
                </mxCell>
                <mxCell id="z07SwynEIZwoAent_hTL-28" value="Can Access Authorized Domains" style="shape=partialRectangle;html=1;whiteSpace=wrap;connectable=0;overflow=hidden;fillColor=none;top=0;left=0;bottom=0;right=0;pointerEvents=1;fontSize=11;" vertex="1" parent="z07SwynEIZwoAent_hTL-26">
                    <mxGeometry x="140" width="160" height="127" as="geometry">
                        <mxRectangle width="160" height="127" as="alternateBounds"/>
                    </mxGeometry>
                </mxCell>
                <mxCell id="z07SwynEIZwoAent_hTL-29" value="&lt;span style=&quot;color: rgb(174, 45, 45);&quot;&gt;Can create?&lt;/span&gt;" style="shape=partialRectangle;html=1;whiteSpace=wrap;connectable=0;overflow=hidden;fillColor=none;top=0;left=0;bottom=0;right=0;pointerEvents=1;fontSize=11;" vertex="1" parent="z07SwynEIZwoAent_hTL-26">
                    <mxGeometry x="300" width="140" height="127" as="geometry">
                        <mxRectangle width="140" height="127" as="alternateBounds"/>
                    </mxGeometry>
                </mxCell>
                <mxCell id="z07SwynEIZwoAent_hTL-30" value="&lt;span style=&quot;color: rgb(174, 45, 45);&quot;&gt;Can create?&lt;/span&gt;" style="shape=partialRectangle;html=1;whiteSpace=wrap;connectable=0;overflow=hidden;fillColor=none;top=0;left=0;bottom=0;right=0;pointerEvents=1;fontSize=11;" vertex="1" parent="z07SwynEIZwoAent_hTL-26">
                    <mxGeometry x="440" width="170" height="127" as="geometry">
                        <mxRectangle width="170" height="127" as="alternateBounds"/>
                    </mxGeometry>
                </mxCell>
                <mxCell id="z07SwynEIZwoAent_hTL-31" value="See projects&lt;br&gt;Subscribe to projects" style="shape=partialRectangle;html=1;whiteSpace=wrap;connectable=0;overflow=hidden;fillColor=none;top=0;left=0;bottom=0;right=0;pointerEvents=1;fontSize=11;" vertex="1" parent="z07SwynEIZwoAent_hTL-26">
                    <mxGeometry x="610" width="180" height="127" as="geometry">
                        <mxRectangle width="180" height="127" as="alternateBounds"/>
                    </mxGeometry>
                </mxCell>
                <mxCell id="z07SwynEIZwoAent_hTL-32" style="shape=partialRectangle;html=1;whiteSpace=wrap;connectable=0;overflow=hidden;fillColor=none;top=0;left=0;bottom=0;right=0;pointerEvents=1;fontSize=11;" vertex="1" visible="0" parent="z07SwynEIZwoAent_hTL-26">
                    <mxGeometry x="790" width="150" height="127" as="geometry">
                        <mxRectangle width="150" height="127" as="alternateBounds"/>
                    </mxGeometry>
                </mxCell>
                <mxCell id="z07SwynEIZwoAent_hTL-33" value="&lt;font color=&quot;#ae2d2d&quot;&gt;Can publish?&lt;br style=&quot;border-color: var(--border-color);&quot;&gt;Can unpublish?&lt;br style=&quot;border-color: var(--border-color);&quot;&gt;Can add data sources?&lt;br style=&quot;border-color: var(--border-color);&quot;&gt;Can edit owned assets?&lt;br style=&quot;border-color: var(--border-color);&quot;&gt;Can approve/disapprove subscriptions?&lt;br style=&quot;border-color: var(--border-color);&quot;&gt;Can subscribe to other projects' assets?&lt;/font&gt;" style="shape=partialRectangle;html=1;whiteSpace=wrap;connectable=0;overflow=hidden;fillColor=none;top=0;left=0;bottom=0;right=0;pointerEvents=1;fontSize=11;" vertex="1" parent="z07SwynEIZwoAent_hTL-26">
                    <mxGeometry x="940" width="200" height="127" as="geometry">
                        <mxRectangle width="200" height="127" as="alternateBounds"/>
                    </mxGeometry>
                </mxCell>
                <mxCell id="z07SwynEIZwoAent_hTL-34" value="" style="shape=tableRow;horizontal=0;startSize=0;swimlaneHead=0;swimlaneBody=0;top=0;left=0;bottom=0;right=0;collapsible=0;dropTarget=0;fillColor=none;points=[[0,0.5],[1,0.5]];portConstraint=eastwest;fontSize=11;" vertex="1" parent="z07SwynEIZwoAent_hTL-1">
                    <mxGeometry y="328" width="1140" height="42" as="geometry"/>
                </mxCell>
                <mxCell id="z07SwynEIZwoAent_hTL-35" value="User" style="shape=partialRectangle;html=1;whiteSpace=wrap;connectable=0;overflow=hidden;fillColor=none;top=0;left=0;bottom=0;right=0;pointerEvents=1;fontSize=11;fontStyle=1" vertex="1" parent="z07SwynEIZwoAent_hTL-34">
                    <mxGeometry width="140" height="42" as="geometry">
                        <mxRectangle width="140" height="42" as="alternateBounds"/>
                    </mxGeometry>
                </mxCell>
                <mxCell id="z07SwynEIZwoAent_hTL-36" value="Can Access Authorized Domains" style="shape=partialRectangle;html=1;whiteSpace=wrap;connectable=0;overflow=hidden;fillColor=none;top=0;left=0;bottom=0;right=0;pointerEvents=1;fontSize=11;" vertex="1" parent="z07SwynEIZwoAent_hTL-34">
                    <mxGeometry x="140" width="160" height="42" as="geometry">
                        <mxRectangle width="160" height="42" as="alternateBounds"/>
                    </mxGeometry>
                </mxCell>
                <mxCell id="z07SwynEIZwoAent_hTL-37" value="&lt;span style=&quot;color: rgb(174, 45, 45);&quot;&gt;Can see?&lt;/span&gt;" style="shape=partialRectangle;html=1;whiteSpace=wrap;connectable=0;overflow=hidden;fillColor=none;top=0;left=0;bottom=0;right=0;pointerEvents=1;fontSize=11;" vertex="1" parent="z07SwynEIZwoAent_hTL-34">
                    <mxGeometry x="300" width="140" height="42" as="geometry">
                        <mxRectangle width="140" height="42" as="alternateBounds"/>
                    </mxGeometry>
                </mxCell>
                <mxCell id="z07SwynEIZwoAent_hTL-38" value="&lt;span style=&quot;color: rgb(174, 45, 45);&quot;&gt;Can see?&lt;/span&gt;" style="shape=partialRectangle;html=1;whiteSpace=wrap;connectable=0;overflow=hidden;fillColor=none;top=0;left=0;bottom=0;right=0;pointerEvents=1;fontSize=11;" vertex="1" parent="z07SwynEIZwoAent_hTL-34">
                    <mxGeometry x="440" width="170" height="42" as="geometry">
                        <mxRectangle width="170" height="42" as="alternateBounds"/>
                    </mxGeometry>
                </mxCell>
                <mxCell id="z07SwynEIZwoAent_hTL-39" value="See projects&lt;br&gt;Subscribe to projects&lt;br&gt;Create&amp;nbsp;" style="shape=partialRectangle;html=1;whiteSpace=wrap;connectable=0;overflow=hidden;fillColor=none;top=0;left=0;bottom=0;right=0;pointerEvents=1;fontSize=11;" vertex="1" parent="z07SwynEIZwoAent_hTL-34">
                    <mxGeometry x="610" width="180" height="42" as="geometry">
                        <mxRectangle width="180" height="42" as="alternateBounds"/>
                    </mxGeometry>
                </mxCell>
                <mxCell id="z07SwynEIZwoAent_hTL-40" value="&lt;font color=&quot;#ae2d2d&quot;&gt;Can see?&lt;/font&gt;" style="shape=partialRectangle;html=1;whiteSpace=wrap;connectable=0;overflow=hidden;fillColor=none;top=0;left=0;bottom=0;right=0;pointerEvents=1;fontSize=11;" vertex="1" parent="z07SwynEIZwoAent_hTL-34">
                    <mxGeometry x="790" width="150" height="42" as="geometry">
                        <mxRectangle width="150" height="42" as="alternateBounds"/>
                    </mxGeometry>
                </mxCell>
                <mxCell id="z07SwynEIZwoAent_hTL-41" value="Can subscribe" style="shape=partialRectangle;html=1;whiteSpace=wrap;connectable=0;overflow=hidden;fillColor=none;top=0;left=0;bottom=0;right=0;pointerEvents=1;fontSize=11;" vertex="1" parent="z07SwynEIZwoAent_hTL-34">
                    <mxGeometry x="940" width="200" height="42" as="geometry">
                        <mxRectangle width="200" height="42" as="alternateBounds"/>
                    </mxGeometry>
                </mxCell>
            </root>
        </mxGraphModel>
    </diagram>
</mxfile>